# xmcd
#
# Track frame offsets: 
#        300
#        29185
#        45770
#        68062
#        82672
#        99892
#        118728
#        131109
#        147538
#        163774
#        179900
#        203071
#        216712
#        222261
#        244745
#
# Disc length: 3513 seconds
#
# Revision: 0
# Processed by: cddbd v1.5.2PL0 Copyright (c) Steve Scherf et al.
# Submitted via: ExactAudioCopy v1.0b3
#
DISCID=e80db50f
DTITLE=Hugh Laurie - Let Them Talk
DYEAR=2011
DGENRE=Blues
TTITLE0=Saint James Infirmary
TTITLE1=You Donn't Know My Mind
TTITLE2=Six Cold Feet
TTITLE3=Buddy Bolden's Blue
TTITLE4=Battle Of Jerico
TTITLE5=After You've Gone
TTITLE6=Suwanee River
TTITLE7=The Whale Has Swallowed Me
TTITLE8=John Henry
TTITLE9=Police Dog Blues
TTITLE10=Tiptina
TTITLE11=Winin' Boy Blues
TTITLE12=They're Red Hot
TTITLE13=Baby, Please Make A Change
TTITLE14=Let Them Talk
EXTD=
EXTT0=
EXTT1=
EXTT2=
EXTT3=
EXTT4=
EXTT5=
EXTT6=
EXTT7=
EXTT8=
EXTT9=
EXTT10=
EXTT11=
EXTT12=
EXTT13=
EXTT14=
PLAYORDER=
